# Blender 3.6.5
# www.blender.org
mtllib sunsystem.mtl
o rings
v 0.000000 0.000000 -1.000000
v -0.258819 0.000000 -0.965926
v -0.500000 0.000000 -0.866025
v -0.707107 0.000000 -0.707107
v -0.866025 0.000000 -0.500000
v -0.965926 0.000000 -0.258819
v -1.000000 0.000000 0.000000
v -0.965926 0.000000 0.258819
v -0.866025 0.000000 0.500000
v -0.707107 0.000000 0.707107
v -0.500000 0.000000 0.866025
v -0.258819 0.000000 0.965926
v 0.000000 0.000000 1.000000
v 0.258819 0.000000 0.965926
v 0.500000 0.000000 0.866025
v 0.707107 0.000000 0.707107
v 0.866025 0.000000 0.500000
v 0.965926 0.000000 0.258819
v 1.000000 0.000000 0.000000
v 0.965926 0.000000 -0.258819
v 0.866025 0.000000 -0.500000
v 0.707107 0.000000 -0.707107
v 0.500000 0.000000 -0.866025
v 0.258819 0.000000 -0.965926
v 0.000000 0.000000 -0.750000
v -0.194114 0.000000 -0.724444
v -0.375000 0.000000 -0.649519
v -0.530330 0.000000 -0.530330
v -0.649519 0.000000 -0.375000
v -0.724444 0.000000 -0.194114
v -0.750000 0.000000 0.000000
v -0.724444 0.000000 0.194114
v -0.649519 0.000000 0.375000
v -0.530330 0.000000 0.530330
v -0.375000 0.000000 0.649519
v -0.194114 0.000000 0.724444
v 0.000000 0.000000 0.750000
v 0.194114 0.000000 0.724444
v 0.375000 0.000000 0.649519
v 0.530330 0.000000 0.530330
v 0.649519 0.000000 0.375000
v 0.724444 0.000000 0.194114
v 0.750000 0.000000 0.000000
v 0.724444 0.000000 -0.194114
v 0.649519 0.000000 -0.375000
v 0.530330 0.000000 -0.530330
v 0.375000 0.000000 -0.649519
v 0.194114 0.000000 -0.724444
v 0.000000 0.000000 -0.500000
v -0.129410 0.000000 -0.482963
v -0.250000 0.000000 -0.433013
v -0.353553 0.000000 -0.353553
v -0.433013 0.000000 -0.250000
v -0.482963 0.000000 -0.129410
v -0.500000 0.000000 0.000000
v -0.482963 0.000000 0.129410
v -0.433013 0.000000 0.250000
v -0.353553 0.000000 0.353553
v -0.250000 0.000000 0.433013
v -0.129410 0.000000 0.482963
v 0.000000 0.000000 0.500000
v 0.129410 0.000000 0.482963
v 0.250000 0.000000 0.433013
v 0.353553 0.000000 0.353553
v 0.433013 0.000000 0.250000
v 0.482963 0.000000 0.129410
v 0.500000 0.000000 0.000000
v 0.482963 0.000000 -0.129410
v 0.433013 0.000000 -0.250000
v 0.353553 0.000000 -0.353553
v 0.250000 0.000000 -0.433013
v 0.129410 0.000000 -0.482963
v -0.000000 0.000000 -0.299568
v -0.077534 0.000000 -0.289361
v -0.149784 0.000000 -0.259434
v -0.211827 0.000000 -0.211827
v -0.259434 0.000000 -0.149784
v -0.289361 0.000000 -0.077534
v -0.299568 0.000000 0.000000
v -0.289361 0.000000 0.077534
v -0.259434 0.000000 0.149784
v -0.211827 0.000000 0.211827
v -0.149784 0.000000 0.259434
v -0.077534 0.000000 0.289361
v -0.000000 0.000000 0.299568
v 0.077534 0.000000 0.289361
v 0.149784 0.000000 0.259434
v 0.211827 0.000000 0.211827
v 0.259434 0.000000 0.149784
v 0.289361 0.000000 0.077534
v 0.299568 0.000000 0.000000
v 0.289361 0.000000 -0.077534
v 0.259434 0.000000 -0.149784
v 0.211827 0.000000 -0.211827
v 0.149784 0.000000 -0.259434
v 0.077534 0.000000 -0.289361
v 0.000000 0.000000 -0.852281
v -0.220586 0.000000 -0.823240
v -0.426140 0.000000 -0.738097
v -0.602653 0.000000 -0.602653
v -0.738097 0.000000 -0.426140
v -0.823240 0.000000 -0.220586
v -0.852281 0.000000 0.000000
v -0.823240 0.000000 0.220586
v -0.738097 0.000000 0.426140
v -0.602653 0.000000 0.602653
v -0.426140 0.000000 0.738097
v -0.220586 0.000000 0.823240
v 0.000000 0.000000 0.852281
v 0.220586 0.000000 0.823240
v 0.426140 0.000000 0.738097
v 0.602653 0.000000 0.602653
v 0.738097 0.000000 0.426140
v 0.823240 0.000000 0.220586
v 0.852281 0.000000 0.000000
v 0.823240 0.000000 -0.220586
v 0.738097 0.000000 -0.426140
v 0.602653 0.000000 -0.602653
v 0.426140 0.000000 -0.738097
v 0.220586 0.000000 -0.823240
v -0.000000 0.000000 -0.603362
v -0.156162 0.000000 -0.582803
v -0.301681 0.000000 -0.522527
v -0.426641 0.000000 -0.426641
v -0.522527 0.000000 -0.301681
v -0.582803 0.000000 -0.156162
v -0.603362 0.000000 0.000000
v -0.582803 0.000000 0.156162
v -0.522527 0.000000 0.301681
v -0.426641 0.000000 0.426641
v -0.301681 0.000000 0.522527
v -0.156162 0.000000 0.582803
v -0.000000 0.000000 0.603362
v 0.156162 0.000000 0.582803
v 0.301681 0.000000 0.522527
v 0.426641 0.000000 0.426641
v 0.522527 0.000000 0.301681
v 0.582803 0.000000 0.156162
v 0.603362 0.000000 0.000000
v 0.582803 0.000000 -0.156162
v 0.522527 0.000000 -0.301681
v 0.426641 0.000000 -0.426641
v 0.301681 0.000000 -0.522527
v 0.156162 0.000000 -0.582803
v 0.000000 0.000000 -0.403994
v -0.104561 0.000000 -0.390228
v -0.201997 0.000000 -0.349869
v -0.285667 0.000000 -0.285667
v -0.349869 0.000000 -0.201997
v -0.390228 0.000000 -0.104561
v -0.403994 0.000000 0.000000
v -0.390228 0.000000 0.104561
v -0.349869 0.000000 0.201997
v -0.285667 0.000000 0.285667
v -0.201997 0.000000 0.349869
v -0.104561 0.000000 0.390228
v 0.000000 0.000000 0.403994
v 0.104561 0.000000 0.390228
v 0.201997 0.000000 0.349869
v 0.285667 0.000000 0.285667
v 0.349869 0.000000 0.201997
v 0.390228 0.000000 0.104561
v 0.403994 0.000000 0.000000
v 0.390228 0.000000 -0.104561
v 0.349869 0.000000 -0.201997
v 0.285667 0.000000 -0.285667
v 0.201997 0.000000 -0.349869
v 0.104561 0.000000 -0.390228
v -0.000000 0.000000 -0.200624
v -0.051925 0.000000 -0.193788
v -0.100312 0.000000 -0.173746
v -0.141863 0.000000 -0.141863
v -0.173746 0.000000 -0.100312
v -0.193788 0.000000 -0.051925
v -0.200624 0.000000 0.000000
v -0.193788 0.000000 0.051925
v -0.173746 0.000000 0.100312
v -0.141863 0.000000 0.141863
v -0.100312 0.000000 0.173746
v -0.051925 0.000000 0.193788
v -0.000000 0.000000 0.200624
v 0.051925 0.000000 0.193788
v 0.100312 0.000000 0.173746
v 0.141863 0.000000 0.141863
v 0.173746 0.000000 0.100312
v 0.193788 0.000000 0.051925
v 0.200624 0.000000 0.000000
v 0.193788 0.000000 -0.051925
v 0.173746 0.000000 -0.100312
v 0.141863 0.000000 -0.141863
v 0.100312 0.000000 -0.173746
v 0.051925 0.000000 -0.193788
vn -0.0000 -1.0000 -0.0000
vt 0.000000 0.000000
s 0
f 10/1/1 9/1/1 105/1/1 106/1/1
f 89/1/1 88/1/1 184/1/1 185/1/1
f 63/1/1 62/1/1 158/1/1 159/1/1
f 37/1/1 36/1/1 132/1/1 133/1/1
f 11/1/1 10/1/1 106/1/1 107/1/1
f 90/1/1 89/1/1 185/1/1 186/1/1
f 64/1/1 63/1/1 159/1/1 160/1/1
f 38/1/1 37/1/1 133/1/1 134/1/1
f 12/1/1 11/1/1 107/1/1 108/1/1
f 91/1/1 90/1/1 186/1/1 187/1/1
f 65/1/1 64/1/1 160/1/1 161/1/1
f 39/1/1 38/1/1 134/1/1 135/1/1
f 13/1/1 12/1/1 108/1/1 109/1/1
f 92/1/1 91/1/1 187/1/1 188/1/1
f 66/1/1 65/1/1 161/1/1 162/1/1
f 40/1/1 39/1/1 135/1/1 136/1/1
f 14/1/1 13/1/1 109/1/1 110/1/1
f 93/1/1 92/1/1 188/1/1 189/1/1
f 67/1/1 66/1/1 162/1/1 163/1/1
f 41/1/1 40/1/1 136/1/1 137/1/1
f 15/1/1 14/1/1 110/1/1 111/1/1
f 94/1/1 93/1/1 189/1/1 190/1/1
f 68/1/1 67/1/1 163/1/1 164/1/1
f 42/1/1 41/1/1 137/1/1 138/1/1
f 16/1/1 15/1/1 111/1/1 112/1/1
f 95/1/1 94/1/1 190/1/1 191/1/1
f 69/1/1 68/1/1 164/1/1 165/1/1
f 43/1/1 42/1/1 138/1/1 139/1/1
f 17/1/1 16/1/1 112/1/1 113/1/1
f 96/1/1 95/1/1 191/1/1 192/1/1
f 70/1/1 69/1/1 165/1/1 166/1/1
f 44/1/1 43/1/1 139/1/1 140/1/1
f 18/1/1 17/1/1 113/1/1 114/1/1
f 73/1/1 96/1/1 192/1/1 169/1/1
f 71/1/1 70/1/1 166/1/1 167/1/1
f 45/1/1 44/1/1 140/1/1 141/1/1
f 19/1/1 18/1/1 114/1/1 115/1/1
f 72/1/1 71/1/1 167/1/1 168/1/1
f 46/1/1 45/1/1 141/1/1 142/1/1
f 20/1/1 19/1/1 115/1/1 116/1/1
f 49/1/1 72/1/1 168/1/1 145/1/1
f 47/1/1 46/1/1 142/1/1 143/1/1
f 21/1/1 20/1/1 116/1/1 117/1/1
f 74/1/1 73/1/1 169/1/1 170/1/1
f 48/1/1 47/1/1 143/1/1 144/1/1
f 22/1/1 21/1/1 117/1/1 118/1/1
f 75/1/1 74/1/1 170/1/1 171/1/1
f 25/1/1 48/1/1 144/1/1 121/1/1
f 23/1/1 22/1/1 118/1/1 119/1/1
f 76/1/1 75/1/1 171/1/1 172/1/1
f 50/1/1 49/1/1 145/1/1 146/1/1
f 24/1/1 23/1/1 119/1/1 120/1/1
f 77/1/1 76/1/1 172/1/1 173/1/1
f 51/1/1 50/1/1 146/1/1 147/1/1
f 1/1/1 24/1/1 120/1/1 97/1/1
f 78/1/1 77/1/1 173/1/1 174/1/1
f 52/1/1 51/1/1 147/1/1 148/1/1
f 26/1/1 25/1/1 121/1/1 122/1/1
f 79/1/1 78/1/1 174/1/1 175/1/1
f 53/1/1 52/1/1 148/1/1 149/1/1
f 27/1/1 26/1/1 122/1/1 123/1/1
f 80/1/1 79/1/1 175/1/1 176/1/1
f 54/1/1 53/1/1 149/1/1 150/1/1
f 28/1/1 27/1/1 123/1/1 124/1/1
f 2/1/1 1/1/1 97/1/1 98/1/1
f 81/1/1 80/1/1 176/1/1 177/1/1
f 55/1/1 54/1/1 150/1/1 151/1/1
f 29/1/1 28/1/1 124/1/1 125/1/1
f 3/1/1 2/1/1 98/1/1 99/1/1
f 82/1/1 81/1/1 177/1/1 178/1/1
f 56/1/1 55/1/1 151/1/1 152/1/1
f 30/1/1 29/1/1 125/1/1 126/1/1
f 4/1/1 3/1/1 99/1/1 100/1/1
f 83/1/1 82/1/1 178/1/1 179/1/1
f 57/1/1 56/1/1 152/1/1 153/1/1
f 31/1/1 30/1/1 126/1/1 127/1/1
f 5/1/1 4/1/1 100/1/1 101/1/1
f 84/1/1 83/1/1 179/1/1 180/1/1
f 58/1/1 57/1/1 153/1/1 154/1/1
f 32/1/1 31/1/1 127/1/1 128/1/1
f 6/1/1 5/1/1 101/1/1 102/1/1
f 85/1/1 84/1/1 180/1/1 181/1/1
f 59/1/1 58/1/1 154/1/1 155/1/1
f 33/1/1 32/1/1 128/1/1 129/1/1
f 7/1/1 6/1/1 102/1/1 103/1/1
f 86/1/1 85/1/1 181/1/1 182/1/1
f 60/1/1 59/1/1 155/1/1 156/1/1
f 34/1/1 33/1/1 129/1/1 130/1/1
f 8/1/1 7/1/1 103/1/1 104/1/1
f 87/1/1 86/1/1 182/1/1 183/1/1
f 61/1/1 60/1/1 156/1/1 157/1/1
f 35/1/1 34/1/1 130/1/1 131/1/1
f 9/1/1 8/1/1 104/1/1 105/1/1
f 88/1/1 87/1/1 183/1/1 184/1/1
f 62/1/1 61/1/1 157/1/1 158/1/1
f 36/1/1 35/1/1 131/1/1 132/1/1
o Икосфера
v 0.000000 -0.066895 -0.000000
v 0.048406 -0.029917 0.035169
v -0.018489 -0.029917 0.056904
v -0.059833 -0.029917 -0.000000
v -0.018489 -0.029917 -0.056904
v 0.048406 -0.029917 -0.035169
v 0.018489 0.029917 0.056904
v -0.048406 0.029917 0.035169
v -0.048406 0.029917 -0.035169
v 0.018489 0.029917 -0.056904
v 0.059833 0.029917 -0.000000
v 0.000000 0.066895 -0.000000
v -0.010868 -0.056905 0.033447
v 0.028452 -0.056905 0.020671
v 0.017585 -0.035169 0.054119
v 0.056904 -0.035169 -0.000000
v 0.028452 -0.056905 -0.020671
v -0.035169 -0.056905 -0.000000
v -0.046037 -0.035169 0.033447
v -0.010868 -0.056905 -0.033447
v -0.046037 -0.035169 -0.033447
v 0.017585 -0.035169 -0.054119
v 0.063621 0.000000 0.020671
v 0.063621 0.000000 -0.020671
v 0.000000 0.000000 0.066895
v 0.039320 0.000000 0.054119
v -0.063621 0.000000 0.020671
v -0.039320 0.000000 0.054119
v -0.039320 0.000000 -0.054119
v -0.063621 0.000000 -0.020671
v 0.039320 0.000000 -0.054119
v 0.000000 0.000000 -0.066895
v 0.046037 0.035169 0.033447
v -0.017585 0.035169 0.054119
v -0.056904 0.035169 -0.000000
v -0.017585 0.035169 -0.054119
v 0.046037 0.035169 -0.033447
v 0.010868 0.056905 0.033447
v 0.035169 0.056905 -0.000000
v -0.028452 0.056905 0.020671
v -0.028452 0.056905 -0.020671
v 0.010868 0.056905 -0.033447
v 0.000000 -0.193112 -1.000000
v 0.139737 -0.086364 -0.898476
v -0.053374 -0.086364 -0.835729
v -0.172725 -0.086363 -1.000000
v -0.053374 -0.086364 -1.164271
v 0.139737 -0.086364 -1.101524
v 0.053374 0.086364 -0.835729
v -0.139737 0.086364 -0.898476
v -0.139737 0.086364 -1.101524
v 0.053374 0.086364 -1.164271
v 0.172725 0.086363 -1.000000
v 0.000000 0.193112 -1.000000
v -0.031372 -0.164272 -0.903445
v 0.082135 -0.164272 -0.940326
v 0.050763 -0.101526 -0.843770
v 0.164271 -0.101526 -1.000000
v 0.082135 -0.164272 -1.059674
v -0.101525 -0.164271 -1.000000
v -0.132898 -0.101526 -0.903444
v -0.031372 -0.164272 -1.096555
v -0.132898 -0.101526 -1.096555
v 0.050763 -0.101526 -1.156230
v 0.183661 0.000000 -0.940326
v 0.183661 0.000000 -1.059674
v 0.000000 0.000000 -0.806888
v 0.113509 0.000000 -0.843769
v -0.183661 0.000000 -0.940326
v -0.113509 0.000000 -0.843769
v -0.113509 0.000000 -1.156231
v -0.183661 0.000000 -1.059674
v 0.113509 0.000000 -1.156231
v 0.000000 0.000000 -1.193112
v 0.132898 0.101526 -0.903444
v -0.050763 0.101526 -0.843770
v -0.164271 0.101526 -1.000000
v -0.050763 0.101526 -1.156230
v 0.132898 0.101526 -1.096555
v 0.031372 0.164272 -0.903445
v 0.101525 0.164271 -1.000000
v -0.082135 0.164272 -0.940326
v -0.082135 0.164272 -1.059674
v 0.031372 0.164272 -1.096555
v -0.000000 0.147303 -0.050264
v 0.043530 0.147303 -0.025132
v 0.043530 0.147303 0.025132
v -0.000000 0.147303 0.050264
v -0.043530 0.147303 0.025132
v -0.043530 0.147303 -0.025132
v -0.000000 0.322875 0.000000
vn 0.1024 -0.9435 0.3151
vn 0.7002 -0.6617 0.2680
vn -0.2680 -0.9435 0.1947
vn -0.2680 -0.9435 -0.1947
vn 0.1024 -0.9435 -0.3151
vn 0.9050 -0.3304 0.2680
vn 0.0247 -0.3304 0.9435
vn -0.8897 -0.3304 0.3151
vn -0.5746 -0.3304 -0.7488
vn 0.5346 -0.3304 -0.7779
vn 0.8026 -0.1256 0.5831
vn -0.3066 -0.1256 0.9435
vn -0.9921 -0.1256 -0.0000
vn -0.3066 -0.1256 -0.9435
vn 0.8026 -0.1256 -0.5831
vn 0.4089 0.6617 0.6284
vn -0.4713 0.6617 0.5831
vn -0.7002 0.6617 -0.2680
vn 0.0385 0.6617 -0.7488
vn 0.7240 0.6617 -0.1947
vn 0.2680 0.9435 -0.1947
vn 0.4911 0.7947 -0.3568
vn 0.4089 0.6617 -0.6284
vn -0.1024 0.9435 -0.3151
vn -0.1876 0.7947 -0.5773
vn -0.4713 0.6617 -0.5831
vn -0.3313 0.9435 -0.0000
vn -0.6071 0.7947 -0.0000
vn -0.7002 0.6617 0.2680
vn -0.1024 0.9435 0.3151
vn -0.1876 0.7947 0.5773
vn 0.0385 0.6617 0.7488
vn 0.2680 0.9435 0.1947
vn 0.4911 0.7947 0.3568
vn 0.7240 0.6617 0.1947
vn 0.8897 0.3304 -0.3151
vn 0.7947 0.1876 -0.5773
vn 0.5746 0.3304 -0.7488
vn -0.0247 0.3304 -0.9435
vn -0.3035 0.1876 -0.9342
vn -0.5346 0.3304 -0.7779
vn -0.9050 0.3304 -0.2680
vn -0.9822 0.1876 -0.0000
vn -0.9050 0.3304 0.2680
vn -0.5346 0.3304 0.7779
vn -0.3035 0.1876 0.9342
vn -0.0247 0.3304 0.9435
vn 0.5746 0.3304 0.7488
vn 0.7947 0.1876 0.5773
vn 0.8897 0.3304 0.3151
vn 0.3066 0.1256 -0.9435
vn 0.3035 -0.1876 -0.9342
vn 0.0247 -0.3304 -0.9435
vn -0.8026 0.1256 -0.5831
vn -0.7947 -0.1876 -0.5773
vn -0.8897 -0.3304 -0.3151
vn -0.8026 0.1256 0.5831
vn -0.7947 -0.1876 0.5773
vn -0.5746 -0.3304 0.7488
vn 0.3066 0.1256 0.9435
vn 0.3035 -0.1876 0.9342
vn 0.5346 -0.3304 0.7779
vn 0.9921 0.1256 -0.0000
vn 0.9822 -0.1876 -0.0000
vn 0.9050 -0.3304 -0.2680
vn 0.4713 -0.6617 -0.5831
vn 0.1876 -0.7947 -0.5773
vn -0.0385 -0.6617 -0.7488
vn -0.4089 -0.6617 -0.6284
vn -0.4911 -0.7947 -0.3568
vn -0.7240 -0.6617 -0.1947
vn -0.7240 -0.6617 0.1947
vn -0.4911 -0.7947 0.3568
vn -0.4089 -0.6617 0.6284
vn 0.7002 -0.6617 -0.2680
vn 0.6071 -0.7947 -0.0000
vn 0.3313 -0.9435 -0.0000
vn -0.0385 -0.6617 0.7488
vn 0.1876 -0.7947 0.5773
vn 0.4713 -0.6617 0.5831
vn 0.4853 0.2406 -0.8406
vn 0.9706 0.2406 -0.0000
vn 0.4853 0.2406 0.8406
vn -0.4853 0.2406 0.8406
vn -0.0000 -1.0000 -0.0000
vn -0.9706 0.2406 -0.0000
vn -0.4853 0.2406 -0.8406
vt 0.181819 0.000000
vt 0.227273 0.078731
vt 0.136365 0.078731
vt 0.272728 0.157461
vt 0.318182 0.078731
vt 0.363637 0.157461
vt 0.909091 0.000000
vt 0.954545 0.078731
vt 0.863636 0.078731
vt 0.727273 0.000000
vt 0.772727 0.078731
vt 0.681818 0.078731
vt 0.545455 0.000000
vt 0.590909 0.078731
vt 0.500000 0.078731
vt 0.318182 0.236191
vt 0.090910 0.157461
vt 0.181819 0.157461
vt 0.136365 0.236191
vt 0.818182 0.157461
vt 0.909091 0.157461
vt 0.863636 0.236191
vt 0.636364 0.157461
vt 0.727273 0.157461
vt 0.681818 0.236191
vt 0.454546 0.157461
vt 0.545455 0.157461
vt 0.500000 0.236191
vt 0.227273 0.236191
vt 0.045455 0.236191
vt 0.772727 0.236191
vt 0.590909 0.236191
vt 0.409092 0.236191
vt 0.181819 0.314921
vt 0.272728 0.314921
vt 0.227273 0.393651
vt 0.000000 0.314921
vt 0.090910 0.314921
vt 0.045455 0.393651
vt 0.727273 0.314921
vt 0.818182 0.314921
vt 0.772727 0.393651
vt 0.545455 0.314921
vt 0.636364 0.314921
vt 0.590909 0.393651
vt 0.363637 0.314921
vt 0.454546 0.314921
vt 0.409092 0.393651
vt 0.500000 0.393651
vt 0.454546 0.472382
vt 0.681818 0.393651
vt 0.636364 0.472382
vt 0.863636 0.393651
vt 0.818182 0.472382
vt 0.909091 0.314921
vt 0.136365 0.393651
vt 0.090910 0.472382
vt 0.318182 0.393651
vt 0.272728 0.472382
vt 0.954545 0.236191
vt 1.000000 0.157461
vt 0.409092 0.078731
vt 0.363637 0.000000
vt 0.250000 0.490000
vt 0.250000 0.250000
vt 0.457846 0.370000
vt 0.457846 0.130000
vt 0.250000 0.010000
vt 0.042154 0.130000
vt 0.750000 0.490000
vt 0.957846 0.370000
vt 0.957846 0.130000
vt 0.750000 0.010000
vt 0.542154 0.130000
vt 0.542154 0.370000
vt 0.042154 0.370000
s 0
f 193/2/2 206/3/2 205/4/2
f 194/5/3 206/6/3 208/7/3
f 193/8/4 205/9/4 210/10/4
f 193/11/5 210/12/5 212/13/5
f 193/14/6 212/15/6 209/16/6
f 194/5/7 208/7/7 215/17/7
f 195/18/8 207/19/8 217/20/8
f 196/21/9 211/22/9 219/23/9
f 197/24/10 213/25/10 221/26/10
f 198/27/11 214/28/11 223/29/11
f 194/5/12 215/17/12 218/30/12
f 195/18/13 217/20/13 220/31/13
f 196/21/14 219/23/14 222/32/14
f 197/24/15 221/26/15 224/33/15
f 198/27/16 223/29/16 216/34/16
f 199/35/17 225/36/17 230/37/17
f 200/38/18 226/39/18 232/40/18
f 201/41/19 227/42/19 233/43/19
f 202/44/20 228/45/20 234/46/20
f 203/47/21 229/48/21 231/49/21
f 231/49/22 234/50/22 204/51/22
f 231/49/23 229/48/23 234/50/23
f 229/48/24 202/44/24 234/50/24
f 234/46/25 233/52/25 204/53/25
f 234/46/26 228/45/26 233/52/26
f 228/45/27 201/41/27 233/52/27
f 233/43/28 232/54/28 204/55/28
f 233/43/29 227/42/29 232/54/29
f 227/42/30 200/56/30 232/54/30
f 232/40/31 230/57/31 204/58/31
f 232/40/32 226/39/32 230/57/32
f 226/39/33 199/35/33 230/57/33
f 230/37/34 231/59/34 204/60/34
f 230/37/35 225/36/35 231/59/35
f 225/36/36 203/47/36 231/59/36
f 216/34/37 229/48/37 203/47/37
f 216/34/38 223/29/38 229/48/38
f 223/29/39 202/44/39 229/48/39
f 224/33/40 228/45/40 202/44/40
f 224/33/41 221/26/41 228/45/41
f 221/26/42 201/41/42 228/45/42
f 222/32/43 227/42/43 201/41/43
f 222/32/44 219/23/44 227/42/44
f 219/23/45 200/56/45 227/42/45
f 220/31/46 226/39/46 200/38/46
f 220/31/47 217/20/47 226/39/47
f 217/20/48 199/35/48 226/39/48
f 218/30/49 225/36/49 199/35/49
f 218/30/50 215/17/50 225/36/50
f 215/17/51 203/47/51 225/36/51
f 223/29/52 224/33/52 202/44/52
f 223/29/53 214/28/53 224/33/53
f 214/28/54 197/24/54 224/33/54
f 221/26/55 222/32/55 201/41/55
f 221/26/56 213/25/56 222/32/56
f 213/25/57 196/21/57 222/32/57
f 219/23/58 220/61/58 200/56/58
f 219/23/59 211/22/59 220/61/59
f 211/22/60 195/62/60 220/61/60
f 217/20/61 218/30/61 199/35/61
f 217/20/62 207/19/62 218/30/62
f 207/19/63 194/5/63 218/30/63
f 215/17/64 216/34/64 203/47/64
f 215/17/65 208/7/65 216/34/65
f 208/7/66 198/27/66 216/34/66
f 209/16/67 214/28/67 198/27/67
f 209/16/68 212/15/68 214/28/68
f 212/15/69 197/24/69 214/28/69
f 212/13/70 213/25/70 197/24/70
f 212/13/71 210/12/71 213/25/71
f 210/12/72 196/21/72 213/25/72
f 210/10/73 211/22/73 196/21/73
f 210/10/74 205/9/74 211/22/74
f 205/9/75 195/62/75 211/22/75
f 208/7/76 209/63/76 198/27/76
f 208/7/77 206/6/77 209/63/77
f 206/6/78 193/64/78 209/63/78
f 205/4/79 207/19/79 195/18/79
f 205/4/80 206/3/80 207/19/80
f 206/3/81 194/5/81 207/19/81
f 235/2/2 248/3/2 247/4/2
f 236/5/3 248/6/3 250/7/3
f 235/8/4 247/9/4 252/10/4
f 235/11/5 252/12/5 254/13/5
f 235/14/6 254/15/6 251/16/6
f 236/5/7 250/7/7 257/17/7
f 237/18/8 249/19/8 259/20/8
f 238/21/9 253/22/9 261/23/9
f 239/24/10 255/25/10 263/26/10
f 240/27/11 256/28/11 265/29/11
f 236/5/12 257/17/12 260/30/12
f 237/18/13 259/20/13 262/31/13
f 238/21/14 261/23/14 264/32/14
f 239/24/15 263/26/15 266/33/15
f 240/27/16 265/29/16 258/34/16
f 241/35/17 267/36/17 272/37/17
f 242/38/18 268/39/18 274/40/18
f 243/41/19 269/42/19 275/43/19
f 244/44/20 270/45/20 276/46/20
f 245/47/21 271/48/21 273/49/21
f 273/49/22 276/50/22 246/51/22
f 273/49/23 271/48/23 276/50/23
f 271/48/24 244/44/24 276/50/24
f 276/46/25 275/52/25 246/53/25
f 276/46/26 270/45/26 275/52/26
f 270/45/27 243/41/27 275/52/27
f 275/43/28 274/54/28 246/55/28
f 275/43/29 269/42/29 274/54/29
f 269/42/30 242/56/30 274/54/30
f 274/40/31 272/57/31 246/58/31
f 274/40/32 268/39/32 272/57/32
f 268/39/33 241/35/33 272/57/33
f 272/37/34 273/59/34 246/60/34
f 272/37/35 267/36/35 273/59/35
f 267/36/36 245/47/36 273/59/36
f 258/34/37 271/48/37 245/47/37
f 258/34/38 265/29/38 271/48/38
f 265/29/39 244/44/39 271/48/39
f 266/33/40 270/45/40 244/44/40
f 266/33/41 263/26/41 270/45/41
f 263/26/42 243/41/42 270/45/42
f 264/32/43 269/42/43 243/41/43
f 264/32/44 261/23/44 269/42/44
f 261/23/45 242/56/45 269/42/45
f 262/31/46 268/39/46 242/38/46
f 262/31/47 259/20/47 268/39/47
f 259/20/48 241/35/48 268/39/48
f 260/30/49 267/36/49 241/35/49
f 260/30/50 257/17/50 267/36/50
f 257/17/51 245/47/51 267/36/51
f 265/29/52 266/33/52 244/44/52
f 265/29/53 256/28/53 266/33/53
f 256/28/54 239/24/54 266/33/54
f 263/26/55 264/32/55 243/41/55
f 263/26/56 255/25/56 264/32/56
f 255/25/57 238/21/57 264/32/57
f 261/23/58 262/61/58 242/56/58
f 261/23/59 253/22/59 262/61/59
f 253/22/60 237/62/60 262/61/60
f 259/20/61 260/30/61 241/35/61
f 259/20/62 249/19/62 260/30/62
f 249/19/63 236/5/63 260/30/63
f 257/17/64 258/34/64 245/47/64
f 257/17/65 250/7/65 258/34/65
f 250/7/66 240/27/66 258/34/66
f 251/16/67 256/28/67 240/27/67
f 251/16/68 254/15/68 256/28/68
f 254/15/69 239/24/69 256/28/69
f 254/13/70 255/25/70 239/24/70
f 254/13/71 252/12/71 255/25/71
f 252/12/72 238/21/72 255/25/72
f 252/10/73 253/22/73 238/21/73
f 252/10/74 247/9/74 253/22/74
f 247/9/75 237/62/75 253/22/75
f 250/7/76 251/63/76 240/27/76
f 250/7/77 248/6/77 251/63/77
f 248/6/78 235/64/78 251/63/78
f 247/4/79 249/19/79 237/18/79
f 247/4/80 248/3/80 249/19/80
f 248/3/81 236/5/81 249/19/81
f 277/65/82 283/66/82 278/67/82
f 278/67/83 283/66/83 279/68/83
f 279/68/84 283/66/84 280/69/84
f 280/69/85 283/66/85 281/70/85
f 277/71/86 278/72/86 279/73/86 280/74/86 281/75/86 282/76/86
f 281/70/87 283/66/87 282/77/87
f 282/77/88 283/66/88 277/65/88
